<?xml version="1.0" encoding="UTF-8"?>
<!DOCTYPE svg PUBLIC "-//W3C//DTD SVG 1.1//EN" "http://www.w3.org/Graphics/SVG/1.1/DTD/svg11.dtd">
<!-- Creator: CorelDRAW 2020 (64-Bit) -->
<svg xmlns="http://www.w3.org/2000/svg" xml:space="preserve" width="100px" height="135px" version="1.1" style="shape-rendering:geometricPrecision; text-rendering:geometricPrecision; image-rendering:optimizeQuality; fill-rule:evenodd; clip-rule:evenodd"
viewBox="0 0 33.69 45.33"
 xmlns:xlink="http://www.w3.org/1999/xlink"
 xmlns:xodm="http://www.corel.com/coreldraw/odm/2003">
 <defs>
  <style type="text/css">
   <![CDATA[
    .fil1 {fill:#0175B9}
    .fil0 {fill:#D95541}
   ]]>
  </style>
 </defs>
 <g id="Capa_x0020_1">
  <metadata id="CorelCorpID_0Corel-Layer"/>
  <path class="fil0" d="M16.95 24.51c-0.37,-0.95 -2.67,-2.88 -3.46,-5.96 -1.36,-5.26 5.14,-6.96 7.74,-10.94 1.42,-2.16 1.61,-4.97 0.47,-7.61 -0.22,3.06 0.69,3.85 -2.82,7.4 -1.61,1.62 -3.86,3.19 -5.51,4.81 -3.55,3.48 -2.99,6.36 0.68,9.93 0.64,0.62 2.12,2.02 2.9,2.37z"/>
  <path class="fil1" d="M31.03 39.06c-0.78,0.92 -1.06,1.12 -2.46,1.5 -5.39,1.48 -24.22,1.73 -25.41,-0.41 0.27,-0.87 3.17,-1.46 4.01,-1.59 -1.67,-0.18 -10.61,1.53 -5.73,2.96 3.03,0.88 6.94,1.24 10.37,1.39 3.6,0.16 20.45,0.6 19.22,-3.85z"/>
  <path class="fil0" d="M18.7 26.17c0.97,-0.37 3.24,-2.31 3.59,-3.74 0.95,-3.79 -7.34,-5.23 2.04,-11.47 0.64,-0.42 1.9,-1.08 2.31,-1.51 -1.82,0.28 -8.17,3.38 -9.44,5.88 -1.06,2.09 0.64,4.19 1.51,5.47 2.07,3.05 1.02,3.8 -0.01,5.37z"/>
  <path class="fil1" d="M26.14 26.52c-1.3,0.07 -3.1,0.46 -4.48,0.61 -2.65,0.3 -13.26,1.22 -14.46,-0.25 0.33,-1.03 2.9,-1.46 4.01,-2 -1.57,0.01 -6.25,1.05 -7.15,1.84 -1.75,1.55 5.23,2.1 6.32,2.16 2.86,0.14 5.94,0.08 8.73,-0.29 1.9,-0.26 5.92,-1.06 7.03,-2.07z"/>
  <path class="fil1" d="M23.76 37.07c-2.62,-1.9 -2,-1.15 -6.37,-0.71 -1.15,0.11 -2.8,0.16 -4.01,0.04 -1.58,-0.16 -2.38,-0.23 -2.88,-1.19 -1.52,0.55 -2.66,1.5 -0.46,2.33 1.32,0.5 3.07,0.67 4.6,0.78 1.46,0.11 7.5,0.07 8.95,-1.07 0.17,-0.12 0.09,-0.06 0.17,-0.18z"/>
  <path class="fil1" d="M15.6 44.4l-5.21 -0.24c-2.55,-0.27 -3.49,-0.8 -4.38,-0.92 0.04,0.85 1.25,1.08 2.04,1.27 2.59,0.63 6.9,0.83 9.56,0.82 4.07,-0.02 16.48,-0.53 16.07,-4.77 -2.9,3.3 -13.61,3.85 -18.08,3.84z"/>
  <path class="fil1" d="M15.01 33.49c2.84,0 7.53,-0.19 9.9,-1.21 -1.91,-1.9 -2.54,-1.07 -5.01,-0.73 -2.08,0.29 -4.23,0.54 -6.43,0.53 -1.6,0 -4.8,-0.03 -3.74,-2.07 -0.58,0.12 -1.73,0.84 -2.02,1.2 -1.75,2.16 6.43,2.28 7.3,2.28z"/>
  <path class="fil1" d="M27.57 25.24c1.41,-0.09 2.53,-0.23 3.36,0.65 1.95,2.06 -1.27,5.88 -4.49,7.35 1.14,0.04 3.26,-0.86 4.13,-1.35 3.53,-2 3.57,-5.71 1.41,-7.05 -1.29,-0.79 -3.45,-0.57 -4.41,0.4z"/>
 </g>
</svg>
