<?xml version="1.0" encoding="UTF-8" standalone="no"?>
<!-- Created with Inkscape (http://www.inkscape.org/) -->

<svg
   xmlns:dc="http://purl.org/dc/elements/1.1/"
   xmlns:cc="http://creativecommons.org/ns#"
   xmlns:rdf="http://www.w3.org/1999/02/22-rdf-syntax-ns#"
   xmlns:svg="http://www.w3.org/2000/svg"
   xmlns="http://www.w3.org/2000/svg"
   xmlns:sodipodi="http://sodipodi.sourceforge.net/DTD/sodipodi-0.dtd"
   xmlns:inkscape="http://www.inkscape.org/namespaces/inkscape"
   width="100"
   height="100"
   viewBox="0 0 26.458332 26.458334"
   version="1.1"
   id="svg24"
   inkscape:version="0.92.4 (5da689c313, 2019-01-14)"
   sodipodi:docname="telefono.svg"
   inkscape:export-filename="C:\Users\Luis\Desktop\Octavo Semestre\2 Diseño Web\Telefonosvg.png"
   inkscape:export-xdpi="96"
   inkscape:export-ydpi="96">
  <defs
     id="defs18" />
  <sodipodi:namedview
     id="base"
     pagecolor="#ffffff"
     bordercolor="#666666"
     borderopacity="1.0"
     inkscape:pageopacity="0.0"
     inkscape:pageshadow="2"
     inkscape:zoom="2.8"
     inkscape:cx="84.508245"
     inkscape:cy="61.377189"
     inkscape:document-units="px"
     inkscape:current-layer="layer1"
     showgrid="false"
     units="px"
     inkscape:window-width="1366"
     inkscape:window-height="705"
     inkscape:window-x="-8"
     inkscape:window-y="-8"
     inkscape:window-maximized="1"
     width="100px" />
  <metadata
     id="metadata21">
    <rdf:RDF>
      <cc:Work
         rdf:about="">
        <dc:format>image/svg+xml</dc:format>
        <dc:type
           rdf:resource="http://purl.org/dc/dcmitype/StillImage" />
        <dc:title></dc:title>
      </cc:Work>
    </rdf:RDF>
  </metadata>
  <g
     inkscape:label="Capa 1"
     inkscape:groupmode="layer"
     id="layer1"
     transform="translate(0,-270.54166)">
    <g
       id="g81"
       transform="matrix(0.18196142,0,0,0.18196142,-4.2783273,268.78382)">
      <g
         id="g74">
        <path
           style="opacity:1;fill:#000000;fill-opacity:1;fill-rule:evenodd;stroke:none;stroke-width:0.09996897;stroke-linecap:round;stroke-miterlimit:4;stroke-dasharray:none;stroke-opacity:1"
           d="m 66.089666,16.998228 c -5.33042,0 -9.62163,4.291211 -9.62163,9.621634 V 133.26038 c 0,5.33043 4.29121,9.62164 9.62163,9.62164 h 54.790464 c 5.33043,0 9.62163,-4.29121 9.62163,-9.62164 V 26.619862 c 0,-5.330423 -4.2912,-9.621634 -9.62163,-9.621634 z m 5.6224,11.225154 h 45.416354 c 1.78216,0 3.21686,1.434695 3.21686,3.216857 v 82.834221 c 0,1.78216 -1.4347,3.21686 -3.21686,3.21686 H 71.712066 c -1.78216,0 -3.21686,-1.4347 -3.21686,-3.21686 V 31.440239 c 0,-1.782162 1.4347,-3.216857 3.21686,-3.216857 z m 21.77283,97.810568 a 5.4790252,5.4790252 0 0 1 5.47874,5.47925 5.4790252,5.4790252 0 0 1 -5.47874,5.47874 5.4790252,5.4790252 0 0 1 -5.47925,-5.47874 5.4790252,5.4790252 0 0 1 5.47925,-5.47925 z"
           id="rect37"
           inkscape:connector-curvature="0" />
        <g
           id="g68"
           transform="translate(0.53454191,2.0115415)">
          <circle
             r="11.358955"
             cy="68.978485"
             cx="92.950356"
             id="path45"
             style="opacity:1;fill:#000000;fill-opacity:1;fill-rule:evenodd;stroke:none;stroke-width:0.11333334;stroke-linecap:round;stroke-miterlimit:4;stroke-dasharray:none;stroke-opacity:1" />
          <path
             inkscape:connector-curvature="0"
             id="path61"
             d="m 102.48744,77.329589 a 12.284225,12.284225 0 0 1 -9.861409,4.98316 12.284225,12.284225 0 0 1 -9.689849,-4.74183 c -0.162301,0.0897 -0.373621,0.20619 -0.373621,0.20619 0,0 -3.070984,2.2209 -5.197099,7.98504 -2.126118,5.76413 -0.661458,8.31526 -0.661458,8.31526 1.67504,3.99276 23.931346,6.324601 31.655426,0.61443 1.6064,-1.22842 3.2602,-8.03237 -4.7718,-16.34784 -0.3572,-0.36981 -0.72494,-0.70604 -1.10019,-1.01441 z"
             style="fill:#000000;stroke:#000000;stroke-width:0.26458332px;stroke-linecap:butt;stroke-linejoin:miter;stroke-opacity:1" />
        </g>
      </g>
    </g>
  </g>
</svg>
